<?xml version="1.0" standalone="no"?><!DOCTYPE svg PUBLIC "-//W3C//DTD SVG 1.1//EN" "http://www.w3.org/Graphics/SVG/1.1/DTD/svg11.dtd"><svg t="1737546108915" class="icon" viewBox="0 0 1024 1024" version="1.1" xmlns="http://www.w3.org/2000/svg" p-id="5876" xmlns:xlink="http://www.w3.org/1999/xlink" width="200" height="200"><path d="M474.9 870.1c-8 24.1-16.1 48.1-24.1 72.2-5.2-18.7-2-38.3-4.2-57.3-0.7-5.9 6.9-16.9-7.7-16.7 5.4-2.4 10.9-4.7 16.7-7.2-1.5 11-2.6 18.6-4.3 31 10.9-10.3 17.3-16.1 23.6-22zM571.6 874l-0.4 0.4c3.7 2.7 7.3 5.4 10.9 8 4.3-2.8 8.6-5.6 12.8-8.4-4 21.5-8.1 42.9-12.1 64.4-3.7-21.5-7.4-42.9-11.2-64.4z" p-id="5877"></path><path d="M571.6 874c-14.3-2.6-28.6-5.2-43-7.7-27.6-4-16.5-4-0.2-3.5 7.1-1.4 14.8-1.5 21.1-4.7 7.7-3.9 18-9.2 19.8-16 1.7-6.5-4.4-17-9.9-23.1-8.9-9.8-19.7-18.1-30.5-25.9-10.7-7.6-21.9-14.9-33.9-19.8-3.5-1.4-14.3 4.8-15.1 9-5.3 25.3-10.4 51.3 10.7 72.8-5.9-6.9-14.9-13-17.2-21-3.7-13.3-2.9-27.9-4.6-41.9-0.5-4-2.9-7.8-4.5-11.7-3.3 16.7-1.2 32-1.8 47.1-0.2 6.4-4.6 14.6-9.7 18.2-7 4.9-16.5 6.2-24.9 9 1.7-1.8 3.1-4.6 5.2-5.3 18.5-6.2 27-18.2 22.3-38.1-3.6-15.2-0.2-33.2-17.4-42.9-2.2-1.2-4.3-3-5.8-5.1-35.6-50.8-89.2-83.3-129.3-129.6C232 552 188.1 459.3 188.1 348.6c0-34.1 0.3-68.1 0.6-102.2 0.2-23.7 8.6-44.3 24-62 16-18.4 18.3-31.7 2.1-49.7-10.5-11.7-26-18.9-39.6-28.3 20.5-21.3 48.3-11.8 73.5-8.1 47.7 7 75 42.2 97.9 80.9 10.2 17.2 17.8 36 28.6 52.7 19.2 29.8 47 29.2 65.7-1.2 9.8-15.9 17-33.4 26.4-49.6 23.3-40.1 51.4-75.7 100.6-83.4 23.5-3.7 48.2-7.5 71.2 9.4-33.9 1.5-61.6 12.2-76.3 46.9 4.8 3 9.4 6 14.1 8.8 45.7 26.8 62.9 74 43.4 123.2-4.4 11.2-2.1 19.8-0.1 30.8 7.7 41.7 32.3 69.8 63 96.5 42.2 36.8 74.8 81.8 96.6 134.2 3.2 7.7 10.9 14.1 17.6 19.7 55.5 45.9 91.3 101.1 87.7 177-0.8 16.9-8.2 26.1-21.8 33-30.9 15.7-63.2 14.7-96.3 9.8-9-1.3-19.4-1.3-27.6 2.1-35.3 14.4-71.8 20.1-109.6 18.2-31.4-1.6-44.1 13-38.4 44.8 0.3 1.9 0.5 3.9 0.7 5.8-4.3-11.2-8.7-22.4-12.3-31.8-5.4 12.8-11.1 26.5-17 40.7 1.2 1 4.8 4.2 8.5 7.5l0.3-0.3zM738 776.1c-16-3.9-27.2-7.1-38.7-9.3-23.1-4.4-47.7-4.9-69.3-13.1-30.4-11.6-60.9-25.6-87.3-44.3-36.1-25.5-69.1-55.8-102.3-85.3-26-23.1-49.1-49.5-75.6-71.9-24.5-20.8-40.9-45.9-44.1-77-3.1-29.8-0.7-60.1-0.7-91.6-9.2-3.1-20.5-5.9-30.9-10.6-9.9-4.5-15.9-2.8-22.7 5.8-24.5 31.1-38 65.9-27.5 104.8 8.2 30.3 18.1 61.5 34.4 87.8C354.1 702.2 476.7 770.7 623.5 799c37.3 7.2 75.6 2.4 114.5-22.9zM371.3 246.6c-21.5 29.4-37.8 42.4-62.6 49.7-31.9 9.5-64.6 0.1-80-22.9-16.2-24.2-12.3-57.9 9.9-84.4 3.8-4.5 7.6-9.1 11.3-13.6-29.3 14.9-48 37.2-46.6 71 1.9 44.8 26.3 77.7 63.3 98.2 89 49.2 181.2 48.3 272.6 6.9 36.4-16.5 61.5-46.2 72.8-86.1 11.9-41.8-19.4-87.7-48.2-93.3 8.5 12.3 19.8 24.9 26.7 39.5 19.7 42.2-6.8 84.7-52.9 87.3-29.4 1.6-54.3-8.6-74.7-29.6-7.1-7.3-13.1-15.6-19.4-23.2-8.5 6.8-16.3 13-25.3 20.2 6.5 9.1 12.3 17.4 15.6 21.9-7.4 28.3-14 53.5-20 76.3-10.3-23.8-21.1-48.8-31.9-73.5 5.1-7.6 11.3-16.7 17.1-25.4-11.1-7.6-19-13.1-27.7-19z m187.7 113c-16 2.7-18.6 14.4-14.6 30.6 5.6 23.2 9.2 47 15.7 70 31.1 109.3 87 199.9 192 252.2 37.5 18.7 77.1 30.3 121.6 33.8 0-11.1-0.3-20 0.1-28.9 0.7-16.1-5.5-24.1-22.5-26-13.8-1.5-27.6-6.4-40.6-11.7-79.5-32-135.4-91.3-176.7-164-28.2-49.6-49.8-103-75-156z m309.8 325.7c-21.8-60.5-59.9-101.1-109-132.3-52.9-33.6-98.3-75.2-132.1-128.4-13.1-20.6-22.6-43.5-35.1-64.6-3.2-5.4-11.4-7.9-17.3-11.7-0.7 6.2-3.8 13.4-1.8 18.5 10.2 25.8 20.6 51.7 33.1 76.4C645.8 521 695 590.8 767 641.5c29.6 20.9 61.6 36.4 101.8 43.8zM534.5 373.8c-15.9-0.1-17.8 8.4-17 20.5 5.2 82 23.4 160.3 67 230.7 47.6 76.9 111.8 131.5 203.7 146.2 23.3 3.7 46.7 3.6 72-8.1-173.6-13.6-304.3-169.8-325.7-389.3z m130.9 367.3C538.7 653.4 518.1 520 512 381.1c-19.1-0.6-27.4 7.7-27.9 25-0.3 11-2.9 21.8-3.3 32.8-3.8 97.3 20.3 184.7 92.6 253.7 25.7 24.6 56.3 41.3 92 48.5zM479.2 387.4c-13.8 3.4-28.6-5-32.2 15.5-13.6 77.7-6.5 152.2 35.3 220.6 13.8 22.5 30.5 43.2 56.1 54.2-69.4-85.3-78.7-183-59.2-290.3z m-0.8-211c20.9-1.3 36.7 3.8 43 23.8 5 16.1 0.1 29.9-14.1 38.6-21.3 13.1-38.6 4-53.2-13.6-7.3 16.9 5.4 36.4 29.9 48.3 33.3 16.1 68.4 9.1 82.2-16.3 14.2-26.3 0.1-63.6-31.2-82.4-25.5-15.1-45.8-15.4-56.6 1.6z m-117.3 49.7c-19.1 19.2-34.2 23.6-50.2 15.2-15.1-7.9-21-20.8-17.8-37.1 4.4-22.5 21.6-28 41.9-28.2-8.1-15.1-25.5-15.9-49.6-3.4-34.1 17.7-50.7 55-37 83.2 12.7 26.2 46.6 34.7 79.2 20.1 27.3-12.4 41-32 33.5-49.8z m402.7 313.7c-21.1-68.5-113.9-161.8-156.2-173 33.4 73.7 86.9 127.8 156.2 173z m-317.5 58.8c2.2-0.9 4.5-1.8 6.7-2.7-32.2-65.8-25.8-134.1-14-202-19.2-6.7-27.2 0.1-31.1 17.6-10.5 46.8-8.7 92.7 9.1 137.1 7 17.7 19.3 33.3 29.3 50z m-42.1-207c-13.5 2.8-30.3-9.3-32.5 12-3.1 29.4-5.7 59.3-4.1 88.7 1.5 27.4 14.4 51.4 38.5 68.7-20.3-55.7-16.2-111.5-1.9-169.4z m-46.5 125.7v-128c-5.1-0.5-13-1.3-22.3-2.2-6.6 46-8.1 88.8 22.3 130.2z m127.9-335.1c-12 0.1-26.2 17.6-26.7 33-0.4 11.3 12.8 22.9 26.1 23 15.7 0.1 28.1-12 28.4-27.7 0.3-15.1-12.8-28.4-27.8-28.3zM337.1 239c4.4-5.3 15.7-13.3 18.3-23.5 3.5-13.9-14.1-32.3-26.1-32.5-13.7-0.2-27.4 13.4-27.6 27.3-0.2 15.3 13 28.8 35.4 28.7z" p-id="5878"></path><path d="M498 99.9c-17.7 13.5-36.9 17.5-59.3 13.9-17.9-2.9-37-3.9-54.8-0.9-21.2 3.6-40.9 3.2-60-6.2C293.3 91.6 261.5 83.1 227 87c31.7-8.5 61.8-3.5 90.7 10.5 21.6 10.5 43.4 13.8 67.1 6.2 10.6-3.4 23.7-5 34.1-2 26.9 7.8 52.8 7.6 78.9-1.9l0.2 0.1zM594.2 874.6c2.7-3.8 5.4-7.7 8.1-11.4-1.3-0.6-5.2-2.6-9.2-4.7 30.1 2.4 60.3 4.9 90.4 7.3-29.8 2.9-59.5 5.8-89.3 8.8zM428.7 854.4c1.2 5.3 2.3 10.6 3.5 16-9.8 7.4-19.5 14.8-30.9 23.4 2-19.9 11.9-31.6 27.4-39.4zM497.9 99.8c24-17.4 51.1-19.5 76.1-18.2-23.7 5.7-49.9 12-76.1 18.2 0.1 0.1 0 0 0 0zM474.2 870.6c5.7-1.7 11.5-3.3 18.8-5.5-1-3.2-2.1-6.9-3.3-10.7 18.5 10.2 37.1 20.3 55.6 30.5-23.6-4.7-47.3-9.5-71.1-14.3zM499.7 213.2c-9 5.3-14.9 11.5-18.4 10.3-5.1-1.7-8.4-8.7-12.5-13.5 4.5-3.7 9.2-10.5 13.3-10.2 5 0.4 9.6 6.9 17.6 13.4zM350.7 210.5c-8 6.5-12.8 13.5-16.7 13-5.1-0.7-9.5-7.3-14.2-11.3 3.7-4.4 7.3-12.1 11.2-12.3 5.3-0.1 10.8 5.4 19.7 10.6z" p-id="5879"></path></svg>