<?xml version="1.0" standalone="no"?><!DOCTYPE svg PUBLIC "-//W3C//DTD SVG 1.1//EN" "http://www.w3.org/Graphics/SVG/1.1/DTD/svg11.dtd"><svg t="1737547951023" class="icon" viewBox="0 0 1245 1024" version="1.1" xmlns="http://www.w3.org/2000/svg" p-id="8469" xmlns:xlink="http://www.w3.org/1999/xlink" width="243.1640625" height="200"><path d="M630.146127 175.081844l-204.984634 118.788335v237.57667L630.146127 650.235183l204.984635-118.788334V293.870179z" fill="#101010" p-id="8470"></path><path d="M334.550016 354.297899v-95.729069l287.749137 170.827219v120.85544h46.058326v-120.85544l287.749137-170.827219v95.729069h46.058326v-149.092505l-97.796174-55.831923-35.963625 32.11038 65.364691 37.308247-288.411414 171.208529-288.411415-171.208529 85.955472-49.088743-35.943556-32.110379-118.407024 67.612418v149.092505z" fill="#101010" p-id="8471"></path><path d="M642.629037 0l-171.850737 94.926309 36.124177 31.167137 135.72656-74.997805 156.5381 86.437128 36.124177-31.167137z" fill="#101010" p-id="8472"></path><path d="M638.61524 825.317027l120.67482-69.779868-21.353403-41.8037-75.900909 43.890875v-130.990279h-46.841016v130.990279l-122.942615-71.104422-21.453748 41.763562z" fill="#101010" p-id="8473"></path><path d="M945.249294 427.931013v160.311069l-148.610849 85.814989 20.952022 40.960803 173.596739-100.244591v-47.964879l163.66259 97.374726L634.902477 970.937598 91.15334 665.467545l188.02634-113.650675v62.956413l127.357793 73.532769 21.052367-40.900596-102.452179-59.183443v-160.311069h-45.957981v70.241455L0 666.95265l635.544685 357.04735 609.555346-359.616181-253.832549-151.019128v-85.433678z" fill="#101010" p-id="8474"></path></svg>